<svg width="66" height="66" viewBox="0 0 66 66" fill="none" xmlns="http://www.w3.org/2000/svg">
<path fill-rule="evenodd" clip-rule="evenodd" d="M33 66C51.2254 66 66 51.2254 66 33C66 14.7746 51.2254 0 33 0C14.7746 0 0 14.7746 0 33C0 51.2254 14.7746 66 33 66Z" fill="#DF0052"/>
<path d="M21.863 12.718V16.579C21.863 17.071 21.956 17.44 22.142 17.686C22.334 17.932 22.655 18.055 23.105 18.055C23.555 18.055 23.873 17.932 24.059 17.686C24.251 17.44 24.347 17.071 24.347 16.579V12.718H25.517V16.426C25.517 16.888 25.472 17.287 25.382 17.623C25.298 17.959 25.16 18.238 24.968 18.46C24.776 18.682 24.524 18.847 24.212 18.955C23.906 19.057 23.534 19.108 23.096 19.108C22.652 19.108 22.277 19.057 21.971 18.955C21.671 18.847 21.425 18.682 21.233 18.46C21.041 18.238 20.903 17.959 20.819 17.623C20.735 17.287 20.693 16.888 20.693 16.426V12.718H21.863ZM26.9519 19V12.718H29.7779C30.0659 12.718 30.3239 12.766 30.5519 12.862C30.7859 12.952 30.9839 13.084 31.1459 13.258C31.3079 13.426 31.4309 13.63 31.5149 13.87C31.5989 14.11 31.6409 14.374 31.6409 14.662C31.6409 14.956 31.5989 15.223 31.5149 15.463C31.4309 15.697 31.3079 15.901 31.1459 16.075C30.9839 16.243 30.7859 16.375 30.5519 16.471C30.3239 16.561 30.0659 16.606 29.7779 16.606H28.1399V19H26.9519ZM28.1399 15.58H29.6699C29.8979 15.58 30.0779 15.52 30.2099 15.4C30.3419 15.274 30.4079 15.097 30.4079 14.869V14.455C30.4079 14.227 30.3419 14.053 30.2099 13.933C30.0779 13.813 29.8979 13.753 29.6699 13.753H28.1399V15.58ZM37.3104 13.771V19H36.1224V13.771H34.3404V12.718H39.0924V13.771H37.3104ZM42.3114 19.108C41.8974 19.108 41.5224 19.039 41.1864 18.901C40.8504 18.763 40.5624 18.556 40.3224 18.28C40.0884 18.004 39.9054 17.665 39.7734 17.263C39.6414 16.861 39.5754 16.393 39.5754 15.859C39.5754 15.331 39.6414 14.866 39.7734 14.464C39.9054 14.056 40.0884 13.714 40.3224 13.438C40.5624 13.162 40.8504 12.955 41.1864 12.817C41.5224 12.679 41.8974 12.61 42.3114 12.61C42.7254 12.61 43.1004 12.679 43.4364 12.817C43.7724 12.955 44.0604 13.162 44.3004 13.438C44.5404 13.714 44.7234 14.056 44.8494 14.464C44.9814 14.866 45.0474 15.331 45.0474 15.859C45.0474 16.393 44.9814 16.861 44.8494 17.263C44.7234 17.665 44.5404 18.004 44.3004 18.28C44.0604 18.556 43.7724 18.763 43.4364 18.901C43.1004 19.039 42.7254 19.108 42.3114 19.108ZM42.3114 18.055C42.7614 18.055 43.1184 17.905 43.3824 17.605C43.6524 17.305 43.7874 16.885 43.7874 16.345V15.373C43.7874 14.833 43.6524 14.413 43.3824 14.113C43.1184 13.813 42.7614 13.663 42.3114 13.663C41.8614 13.663 41.5014 13.813 41.2314 14.113C40.9674 14.413 40.8354 14.833 40.8354 15.373V16.345C40.8354 16.885 40.9674 17.305 41.2314 17.605C41.5014 17.905 41.8614 18.055 42.3114 18.055Z" fill="white"/>
<path d="M17.414 39V36.052H10.66V33.236L16.644 23.644H20.56V33.5H22.496V36.052H20.56V39H17.414ZM13.3 33.5H17.414V27.054H17.194L13.3 33.5ZM28.7914 39.264C26.7821 39.264 25.2934 38.5673 24.3254 37.174C23.3574 35.7807 22.8734 33.83 22.8734 31.322C22.8734 28.814 23.3574 26.8633 24.3254 25.47C25.2934 24.0767 26.7821 23.38 28.7914 23.38C30.8007 23.38 32.2894 24.0767 33.2574 25.47C34.2254 26.8633 34.7094 28.814 34.7094 31.322C34.7094 33.83 34.2254 35.7807 33.2574 37.174C32.2894 38.5673 30.8007 39.264 28.7914 39.264ZM28.7914 36.47C29.6714 36.47 30.2801 36.1473 30.6174 35.502C30.9547 34.8567 31.1234 33.9473 31.1234 32.774V29.87C31.1234 28.6967 30.9547 27.7873 30.6174 27.142C30.2801 26.4967 29.6714 26.174 28.7914 26.174C27.9114 26.174 27.3027 26.4967 26.9654 27.142C26.6281 27.7873 26.4594 28.6967 26.4594 29.87V32.774C26.4594 33.9473 26.6281 34.8567 26.9654 35.502C27.3027 36.1473 27.9114 36.47 28.7914 36.47ZM38.3648 39L49.0128 23.644H51.2348L40.5868 39H38.3648ZM39.3548 32.092C38.1668 32.092 37.2575 31.7253 36.6268 30.992C35.9961 30.244 35.6808 29.1587 35.6808 27.736C35.6808 26.3133 35.9961 25.2353 36.6268 24.502C37.2575 23.754 38.1668 23.38 39.3548 23.38C40.5428 23.38 41.4521 23.754 42.0828 24.502C42.7135 25.2353 43.0288 26.3133 43.0288 27.736C43.0288 29.1587 42.7135 30.244 42.0828 30.992C41.4521 31.7253 40.5428 32.092 39.3548 32.092ZM39.3548 30.618C40.3961 30.618 40.9168 29.8627 40.9168 28.352V27.12C40.9168 25.6093 40.3961 24.854 39.3548 24.854C38.3135 24.854 37.7928 25.6093 37.7928 27.12V28.352C37.7928 29.8627 38.3135 30.618 39.3548 30.618ZM50.2448 39.264C49.0568 39.264 48.1475 38.8973 47.5168 38.164C46.8861 37.416 46.5708 36.3307 46.5708 34.908C46.5708 33.4853 46.8861 32.4073 47.5168 31.674C48.1475 30.926 49.0568 30.552 50.2448 30.552C51.4328 30.552 52.3421 30.926 52.9728 31.674C53.6035 32.4073 53.9188 33.4853 53.9188 34.908C53.9188 36.3307 53.6035 37.416 52.9728 38.164C52.3421 38.8973 51.4328 39.264 50.2448 39.264ZM50.2448 37.79C51.2861 37.79 51.8068 37.0347 51.8068 35.524V34.292C51.8068 32.7813 51.2861 32.026 50.2448 32.026C49.2035 32.026 48.6828 32.7813 48.6828 34.292V35.524C48.6828 37.0347 49.2035 37.79 50.2448 37.79Z" fill="white"/>
<path d="M25.641 52.156C25.043 52.156 24.497 52.0563 24.003 51.857C23.509 51.6577 23.0887 51.363 22.742 50.973C22.3953 50.5743 22.1267 50.0847 21.936 49.504C21.7453 48.9147 21.65 48.2343 21.65 47.463C21.65 46.6917 21.7453 46.0157 21.936 45.435C22.1267 44.8457 22.3953 44.356 22.742 43.966C23.0887 43.5673 23.509 43.2683 24.003 43.069C24.497 42.8697 25.043 42.77 25.641 42.77C26.239 42.77 26.785 42.8697 27.279 43.069C27.773 43.2683 28.1933 43.5673 28.54 43.966C28.8867 44.356 29.1553 44.8457 29.346 45.435C29.5367 46.0157 29.632 46.6917 29.632 47.463C29.632 48.2343 29.5367 48.9147 29.346 49.504C29.1553 50.0847 28.8867 50.5743 28.54 50.973C28.1933 51.363 27.773 51.6577 27.279 51.857C26.785 52.0563 26.239 52.156 25.641 52.156ZM25.641 50.401C26.239 50.401 26.7027 50.206 27.032 49.816C27.37 49.426 27.539 48.867 27.539 48.139V46.787C27.539 46.059 27.37 45.5 27.032 45.11C26.7027 44.72 26.239 44.525 25.641 44.525C25.043 44.525 24.575 44.72 24.237 45.11C23.9077 45.5 23.743 46.059 23.743 46.787V48.139C23.743 48.867 23.9077 49.426 24.237 49.816C24.575 50.206 25.043 50.401 25.641 50.401ZM31.2813 52V42.926H37.3003V44.681H33.2573V46.54H36.7023V48.282H33.2573V52H31.2813ZM38.8858 52V42.926H44.9048V44.681H40.8618V46.54H44.3068V48.282H40.8618V52H38.8858Z" fill="white"/>
</svg>
